# xmcd
#
# Track frame offsets: 
#        150
#        4370
#        29238
#        51778
#        68458
#        101134
#        119246
#        133682
#        154934
#        176086
#        183418
#
# Disc length: 2753 seconds
#
# Revision: 1
# Processed by: cddbd v1.5.2PL0 Copyright (c) Steve Scherf et al.
# Submitted via: ExactAudioCopy v0.99pb5
#
DISCID=a30abf0b
DTITLE=?????? - ???????
DYEAR=1989
DGENRE=Jazz
TTITLE0=????????
TTITLE1=?????????????
TTITLE2=NAJA
TTITLE3=MY LOVE
TTITLE4=P.S. I LOVE  YOU
TTITLE5=SWEET MAGIC MOMENTS
TTITLE6=GOIN' OUT OF MY HEAD
TTITLE7=AMERICAN HIT SONG
TTITLE8=LOVING TOUCH
TTITLE9=???
TTITLE10=????????
EXTD=YEAR: 1989
EXTT0=
EXTT1=
EXTT2=
EXTT3=
EXTT4=
EXTT5=
EXTT6=
EXTT7=
EXTT8=
EXTT9=
EXTT10=
PLAYORDER=
